INFO:


Format                                   : Matroska
Format version                           : Version 2
File size                                : 954 MiB
Duration                                 : 2h 4mn
Overall bit rate                         : 1 074 Kbps
Movie name                               : Captain America The First Avenger 2011
Encoded date                             : UTC 2011-10-31 18:36:57
Writing application                      : mkvmerge v4.9.1 ('Ich will') built on Jul 11 2011 23:53:15
Writing library                          : libebml v1.2.1 + libmatroska v1.1.1

Video
ID                                       : 1
Format                                   : AVC
Format/Info                              : Advanced Video Codec
Format profile                           : High@L3.1
Format settings, CABAC                   : Yes
Format settings, ReFrames                : 5 frames
Muxing mode                              : Header stripping
Codec ID                                 : V_MPEG4/ISO/AVC
Duration                                 : 2h 4mn
Bit rate                                 : 817 Kbps
Width                                    : 1 280 pixels
Height                                   : 544 pixels
Display aspect ratio                     : 2.35:1
Frame rate                               : 23.976 fps
Color space                              : YUV
Chroma subsampling                       : 4:2:0
Bit depth                                : 8 bits
Scan type                                : Progressive
Bits/(Pixel*Frame)                       : 0.049
Stream size                              : 707 MiB (74%)
Title                                    : Ripped By Henry Kharay
Writing library                          : x264 

Audio #1
ID                                       : 2
Format                                   : AC-3
Format/Info                              : Audio Coding 3
Mode extension                           : CM (complete main)
Muxing mode                              : Header stripping
Codec ID                                 : A_AC3
Duration                                 : 2h 4mn
Bit rate mode                            : Constant
Bit rate                                 : 128 Kbps
Channel(s)                               : 2 channels
Channel positions                        : Front: L R
Sampling rate                            : 48.0 KHz
Bit depth                                : 16 bits
Stream size                              : 114 MiB (12%)
Title                                    : HeNry[~KSRR~]
Language                                 : Hindi

Audio #2
ID                                       : 3
Format                                   : AC-3
Format/Info                              : Audio Coding 3
Mode extension                           : CM (complete main)
Muxing mode                              : Header stripping
Codec ID                                 : A_AC3
Duration                                 : 2h 4mn
Bit rate mode                            : Constant
Bit rate                                 : 128 Kbps
Channel(s)                               : 2 channels
Channel positions                        : Front: L R
Sampling rate                            : 48.0 KHz
Bit depth                                : 16 bits
Stream size                              : 114 MiB (12%)
Title                                    : HeNry[~KSRR~]
Language                                 : English


Screens:  
http://www.postimg.com/51000/photo-50696.jpg 
http://www.postimg.com/51000/photo-50700.jpg 
http://www.postimg.com/51000/photo-50695.jpg 
http://www.postimg.com/51000/photo-50697.jpg 
http://www.postimg.com/51000/photo-50698.jpg 
http://www.postimg.com/51000/photo-50699.jpg 
http://www.postimg.com/51000/photo-50694.jpg 
http://www.postimg.com/51000/photo-50692.jpg

Sample Include In Torrent

ENjoy.........	